<svg width="33" height="33" viewBox="0 0 33 33" fill="none" xmlns="http://www.w3.org/2000/svg">
<path d="M7.15682 3.1483C4.55861 4.98087 2.51896 7.55242 1.34365 10.5572C1.39555 10.5638 1.44757 10.572 1.49966 10.5819C2.30058 10.7344 3.1176 10.8478 3.95115 10.9218L3.95236 10.9219C7.59796 11.2471 11.2626 10.7577 14.6835 9.49831C12.7695 7.15154 10.4334 5.16808 7.7848 3.65621C7.54273 3.51803 7.33253 3.34552 7.15682 3.1483Z" fill="#FF1F3A"/>
<path d="M17.4862 13.7707C13.0709 15.594 8.2759 16.3275 3.50804 15.9021C2.51284 15.8137 1.53157 15.6778 0.564673 15.4937C0.461205 15.474 0.360449 15.4482 0.262709 15.4167C0.239066 15.7763 0.227058 16.139 0.227058 16.5045C0.227058 21.0243 2.06291 25.1152 5.02959 28.0724C5.08072 27.9536 5.14174 27.8373 5.21289 27.7245C7.56746 23.9922 10.725 20.8321 14.4555 18.4746C15.7853 17.6342 17.1759 16.9033 18.6135 16.2869C18.2856 15.4296 17.9094 14.5895 17.4862 13.7707Z" fill="#FF1F3A"/>
<path d="M23.3627 14.7098C22.9507 13.6081 22.4729 12.5296 21.9307 11.4801C24.4789 9.88208 26.7727 7.90435 28.7311 5.61267C30.7899 7.91172 32.2069 10.7975 32.7003 13.9884C32.6005 13.9692 32.4985 13.9559 32.3946 13.9488C30.521 13.8214 28.6396 13.8709 26.7753 14.0968C25.624 14.2348 24.4846 14.4398 23.3627 14.7098Z" fill="#FF1F3A"/>
<path d="M19.9283 21.1748C18.9649 21.6215 18.0289 22.1311 17.1266 22.7013C14.0249 24.6615 11.3995 27.289 9.44171 30.3923C9.30378 30.611 9.13756 30.8009 8.95081 30.9604C11.2231 32.159 13.8123 32.8374 16.56 32.8374C17.6612 32.8374 18.737 32.7285 19.7772 32.5207C19.5268 32.0168 19.4441 31.4259 19.5833 30.8354C20.047 28.8694 20.2685 26.8541 20.2429 24.8344L20.2429 24.8315C20.2288 23.6022 20.123 22.3801 19.9283 21.1748Z" fill="#FF1F3A"/>
<path d="M24.7324 30.6489C25.0963 28.7129 25.2674 26.7445 25.2426 24.7725C25.2222 23.0053 25.0443 21.2505 24.7144 19.528C25.5889 19.3245 26.4759 19.1684 27.3716 19.0611L27.3752 19.0607C28.9279 18.8725 30.4948 18.8311 32.0553 18.9373C32.2831 18.9528 32.5058 18.9372 32.7193 18.8943C31.9823 23.9209 28.9556 28.2035 24.7324 30.6489Z" fill="#FF1F3A"/>
<path d="M19.2703 7.24666C17.3631 4.71332 15.0613 2.50009 12.4518 0.692627C13.7644 0.352568 15.141 0.171631 16.56 0.171631C19.5928 0.171631 22.4326 0.998276 24.8663 2.43854C23.2505 4.31418 21.3635 5.93446 19.2703 7.24666Z" fill="#FF1F3A"/>
</svg>
