<svg width="120" height="34" viewBox="0 0 120 34" fill="none" xmlns="http://www.w3.org/2000/svg">
<path d="M24.9291 15.8879C24.2851 14.3689 23.351 12.989 22.1786 11.8249C21.0004 10.6752 19.6054 9.76893 18.0742 9.15844C14.7873 7.88672 11.1416 7.88672 7.85472 9.15844C6.32065 9.76837 4.92462 10.678 3.74891 11.8337C2.57319 12.9895 1.64156 14.3679 1.00891 15.8879C0.322393 17.5303 -0.0205846 19.2948 0.000955147 21.0738C-0.019257 22.8622 0.323592 24.6362 1.00891 26.2893C1.63741 27.8148 2.56779 29.1987 3.7446 30.3584C4.9214 31.5181 6.32054 32.4299 7.8586 33.0394C11.1452 34.3129 14.7915 34.3129 18.0781 33.0394C19.6093 32.4289 21.0042 31.5227 22.1825 30.3729C23.359 29.2044 24.2936 27.8169 24.933 26.2893C25.6141 24.6351 25.9551 22.8616 25.9357 21.0738C25.9553 19.2952 25.6129 17.531 24.9291 15.8879ZM12.967 27.0198C11.7914 27.0201 10.642 26.673 9.66434 26.0225C8.68667 25.372 7.92459 24.4472 7.4745 23.3652C7.02441 22.2833 6.90651 21.0926 7.13572 19.9438C7.36493 18.7951 7.93095 17.7399 8.76219 16.9116C9.59343 16.0833 10.6526 15.5192 11.8056 15.2906C12.9587 15.0621 14.1539 15.1792 15.2402 15.6274C16.3264 16.0755 17.2548 16.8345 17.908 17.8083C18.5612 18.7821 18.9098 19.9271 18.9098 21.0983C18.91 21.8759 18.7564 22.6458 18.4578 23.3643C18.1593 24.0827 17.7215 24.7355 17.1697 25.2854C16.6178 25.8352 15.9627 26.2714 15.2416 26.569C14.5205 26.8666 13.7476 27.0198 12.967 27.0198Z" fill="white"/>
<path d="M53.1505 8.83966H44.8122L39.2179 15.9344L33.6249 8.83966H25.2853L35.0488 21.2209L25.2853 33.6022H33.6249L39.2179 26.5087L44.8122 33.6022H53.1505L43.3884 21.2209L53.1505 8.83966Z" fill="white"/>
<path d="M105.201 33.6035H98.1224V19.3534C98.1224 18.1246 97.7981 17.1037 97.1494 16.2906C96.5008 15.4775 95.4755 15.0701 94.0737 15.0684C92.8058 15.0684 91.8052 15.4758 91.0719 16.2906C90.3386 17.1055 89.972 18.1431 89.972 19.4037V33.6009H82.6053V8.84226H89.7219V12.3696C90.4527 11.0969 91.5207 10.049 92.8093 9.34045C93.147 9.15034 93.4977 8.98388 93.8587 8.84226C94.7663 8.4215 95.7545 8.20135 96.7556 8.19693C98.3219 8.19693 99.0656 8.45506 100.2 8.97132C101.291 9.45482 102.258 10.1791 103.026 11.0893C103.789 12.0101 104.351 13.0791 104.675 14.2282C105.034 15.4752 105.211 16.7669 105.201 18.064V31.9592L106.757 33.6022L105.201 33.6035Z" fill="white"/>
<path d="M66.3498 8.04205C73.0246 8.04205 79.3625 12.6884 79.3625 20.4143V22.6561H59.7255C60.1336 25.8505 63.1394 27.6148 66.5027 27.6148C69.6613 27.6148 71.9544 26.2325 73.0751 24.6115L78.238 28.6538C75.8943 31.8482 71.7666 33.9945 66.4159 33.9945C58.8238 33.9945 52.5001 28.7596 52.5001 21.2261C52.5001 14.1675 58.6049 8.04205 66.3498 8.04205ZM59.7333 18.579H72.1488C71.5114 15.6505 68.8593 14.2591 66.1529 14.2591C63.4464 14.2591 60.4226 15.5511 59.7333 18.579Z" fill="white"/>
<path d="M118.043 32.1954V8.9855H110.531V33.8384H118.043H119.544L118.043 32.1954Z" fill="white"/>
<path d="M118.031 0.494293H110.531V6.10606H118.031V0.494293Z" fill="white"/>
</svg>
