<svg width="73" height="73" viewBox="0 0 73 73" fill="none" xmlns="http://www.w3.org/2000/svg">
<circle cx="36.2037" cy="36.1565" r="35.9213" fill="#0042FF"/>
<path d="M52.633 26.7076V45.6072L36.2028 55.0561V36.1565L52.633 26.7076Z" fill="#CCCCCC"/>
<path d="M36.2027 36.1565V55.0561L19.7744 45.6072V26.7076L36.2027 36.1565Z" fill="#E6E6E6"/>
<path d="M52.633 26.7076L36.2027 36.1565L19.7744 26.7076L36.2027 17.2569L52.633 26.7076Z" fill="#999999"/>
<path d="M52.633 26.7076L36.2027 36.1565L19.7744 26.7076L36.2027 17.2569L52.633 26.7076Z" fill="white"/>
<path d="M52.1501 26.9841V45.3289L36.2028 54.5013V36.1565L52.1501 26.9841Z" fill="#CCCCCC"/>
<path d="M36.2028 36.1565V54.5013L20.2554 45.3289V26.9841L36.2028 36.1565Z" fill="#E3E3E3"/>
<path d="M52.1501 26.9842L36.2027 36.1565L20.2554 26.9842L36.2027 17.8118L52.1501 26.9842Z" fill="#999999"/>
<path d="M52.1501 26.9842L36.2027 36.1565L20.2554 26.9842L36.2027 17.8118L52.1501 26.9842Z" fill="white"/>
</svg>
