<svg width="39" height="31" viewBox="0 0 39 31" fill="none" xmlns="http://www.w3.org/2000/svg">
<path d="M38.2029 0.235395C36.5714 1.38627 34.7649 2.26651 32.853 2.84221C31.8269 1.66235 30.4631 0.826089 28.9462 0.44654C27.4294 0.0669915 25.8325 0.162464 24.3716 0.720047C22.9108 1.27763 21.6564 2.27042 20.7781 3.56414C19.8999 4.85786 19.4402 6.3901 19.4611 7.95362V9.65742C16.4669 9.73506 13.5 9.07099 10.8246 7.72436C8.14914 6.37774 5.84828 4.39035 4.1269 1.9392C4.1269 1.9392 -2.6883 17.2734 12.6459 24.0886C9.13698 26.4705 4.95692 27.6648 0.719299 27.4962C16.0535 36.0152 34.7953 27.4962 34.7953 7.9025C34.7938 7.42792 34.7481 6.9545 34.659 6.48835C36.3979 4.77346 37.6251 2.6083 38.2029 0.235395V0.235395Z" fill="#437DFF"/>
</svg>
