<svg width="38" height="32" viewBox="0 0 38 32" fill="none" xmlns="http://www.w3.org/2000/svg">
<path d="M37.8532 0.929975C36.2216 2.08085 34.4151 2.96109 32.5033 3.53679C31.4771 2.35693 30.1134 1.52067 28.5965 1.14112C27.0796 0.761572 25.4828 0.857045 24.0219 1.41463C22.561 1.97221 21.3066 2.965 20.4284 4.25872C19.5502 5.55244 19.0904 7.08468 19.1114 8.6482V10.352C16.1172 10.4296 13.1503 9.76557 10.4748 8.41894C7.79941 7.07232 5.49855 5.08493 3.77717 2.63378C3.77717 2.63378 -3.03804 17.968 12.2962 24.7832C8.78725 27.1651 4.60719 28.3594 0.369568 28.1908C15.7038 36.7098 34.4456 28.1908 34.4456 8.59708C34.444 8.1225 34.3984 7.64908 34.3093 7.18293C36.0482 5.46804 37.2753 3.30288 37.8532 0.929975Z" fill="white"/>
</svg>
